<svg width="114" height="100" viewBox="0 0 114 100" fill="none" xmlns="http://www.w3.org/2000/svg">
<path d="M58.3267 74.0425H25.6169L17.4395 98.8652C17.3455 99.6217 16.8285 100 15.8886 100H1.08454C0.144606 100 -0.184372 99.5272 0.0976089 98.5816L29.4237 14.3262C30.0816 12.9078 30.5046 10.26 30.6926 6.38298C30.6926 5.81561 31.0216 5.53192 31.6795 5.53192H51.9822C52.4521 5.53192 52.8281 5.76833 53.1101 6.24114L85.8199 98.7234C86.1019 99.5745 85.8199 100 84.974 100H68.3371C67.6791 100 67.2092 99.669 66.9272 99.0071L58.3267 74.0425ZM29.2827 60.2837H54.661C54.285 58.9598 52.3111 52.9551 48.7394 42.2695C45.2616 31.4894 42.9588 24.1135 41.8308 20.1418H41.6898C40.5619 24.9645 36.4262 38.3452 29.2827 60.2837Z" fill="#F2A032"/>
<path d="M94.5734 98.7234V32.0567C94.5734 31.3002 94.9494 30.922 95.7014 30.922H111.351C112.103 30.922 112.479 31.3002 112.479 32.0567V98.8652C112.479 99.6217 112.103 100 111.351 100H95.8424C94.9964 100 94.5734 99.5745 94.5734 98.7234ZM110.505 16.5957C108.814 18.2979 106.511 19.1489 103.597 19.1489C100.683 19.1489 98.3802 18.2979 96.6883 16.5957C94.9964 14.8936 94.1505 12.5768 94.1505 9.64539C94.1505 6.80851 95.0434 4.49172 96.8293 2.69503C98.6152 0.898345 100.918 0 103.738 0C106.558 0 108.814 0.898345 110.505 2.69503C112.197 4.49172 113.043 6.80851 113.043 9.64539C113.043 12.5768 112.197 14.8936 110.505 16.5957Z" fill="#F2A032"/>
</svg>
