<svg width="89" height="100" viewBox="0 0 89 100" fill="none" xmlns="http://www.w3.org/2000/svg">
<path d="M44.2086 100L8.19956 90.0035L0.174927 0H88.3501L80.3172 89.9897L44.2086 100Z" fill="#264DE4"/>
<path d="M73.4401 84.2594L80.3045 7.35889H44.2626V92.3483L73.4401 84.2594Z" fill="#2965F1"/>
<path d="M18.571 40.7402L19.5603 51.7787H44.2625V40.7402H18.571ZM16.5829 18.3979L17.5863 29.4365H44.2625V18.3979H16.5829ZM44.2625 69.4086L44.2141 69.4214L31.9205 66.1019L31.1346 57.2982H20.0535L21.5999 74.6304L44.2117 80.9072L44.2625 80.8934V69.4086Z" fill="#EBEBEB"/>
<path d="M69.8835 40.7402L71.8761 18.3979H44.2245V29.4365H59.7788L58.7744 40.7402H44.2245V51.7787H57.8174L56.5357 66.095L44.2242 69.4179V80.902L66.854 74.6304L67.0199 72.7654L69.6143 43.7044L69.8835 40.7402Z" fill="white"/>
</svg>
