<svg width="24" height="25" viewBox="0 0 24 25" fill="none" xmlns="http://www.w3.org/2000/svg">
<path d="M22.8 11.3C22.1373 11.3 21.6002 11.8372 21.6002 12.4999V22.0999H2.40015V12.4999C2.40015 11.8372 1.86299 11.3 1.20026 11.3C0.537539 11.3 -6.10352e-05 11.8372 -6.10352e-05 12.4999V23.2998C-6.10352e-05 23.9626 0.537108 24.4997 1.19983 24.4997H22.8C23.4628 24.4997 23.9999 23.9626 23.9999 23.2998V12.4999C23.9999 11.8372 23.4628 11.3 22.8 11.3Z" fill="#434343"/>
<path d="M11.151 18.7476C11.2071 18.8037 11.2688 18.8537 11.3348 18.8977C11.3646 18.9176 11.3965 18.9309 11.4271 18.9478C11.4647 18.9685 11.5013 18.9914 11.541 19.0077C11.5807 19.0241 11.6221 19.0336 11.6627 19.0457C11.6968 19.0556 11.7296 19.069 11.765 19.0759C11.8426 19.0914 11.9211 19.0996 12.0001 19.0996C12.0791 19.0996 12.1576 19.0914 12.2353 19.0759C12.2706 19.069 12.303 19.0556 12.3375 19.0457C12.3785 19.0336 12.4199 19.0241 12.4592 19.0077C12.4993 18.9909 12.5355 18.9685 12.5731 18.9478C12.6037 18.9309 12.6361 18.9176 12.6654 18.8977C12.7314 18.8537 12.7931 18.8037 12.8492 18.7476L18.2485 13.3483C18.7171 12.8797 18.7171 12.1199 18.2485 11.6513C17.7804 11.1828 17.0197 11.1828 16.5516 11.6513L13.2 15.0025V1.70014C13.2 1.03741 12.6628 0.500244 12.0001 0.500244C11.3374 0.500244 10.8002 1.03741 10.8002 1.70014V15.0029L7.44863 11.6518C6.98049 11.1832 6.21983 11.1832 5.75169 11.6518C5.28313 12.1203 5.28313 12.8801 5.75169 13.3487L11.151 18.7476Z" fill="#434343"/>
</svg>
