<svg width="42" height="42" viewBox="0 0 42 42" fill="none" xmlns="http://www.w3.org/2000/svg">
<circle cx="21" cy="21" r="21" fill="#F9B24D"/>
<path d="M13 15L19.1076 19.6123L19.1097 19.614C19.7878 20.1113 20.1271 20.3601 20.4988 20.4562C20.8272 20.5412 21.1725 20.5412 21.501 20.4562C21.8729 20.36 22.2132 20.1105 22.8926 19.6123C22.8926 19.6123 26.8101 16.6059 29 15M12 24.8002V17.2002C12 16.0801 12 15.5196 12.218 15.0918C12.4097 14.7155 12.7155 14.4097 13.0918 14.218C13.5196 14 14.0801 14 15.2002 14H26.8002C27.9203 14 28.4796 14 28.9074 14.218C29.2837 14.4097 29.5905 14.7155 29.7822 15.0918C30 15.5192 30 16.079 30 17.1969V24.8036C30 25.9215 30 26.4805 29.7822 26.9079C29.5905 27.2842 29.2837 27.5905 28.9074 27.7822C28.48 28 27.921 28 26.8031 28H15.1969C14.079 28 13.5192 28 13.0918 27.7822C12.7155 27.5905 12.4097 27.2842 12.218 26.9079C12 26.4801 12 25.9203 12 24.8002Z" stroke="white" stroke-width="2" stroke-linecap="round" stroke-linejoin="round"/>
</svg>
