<svg width="86" height="86" viewBox="0 0 86 86" fill="none" xmlns="http://www.w3.org/2000/svg">
<path d="M15.2292 6.93173e-06H70.7708C72.7713 -0.00192685 74.7525 0.400768 76.601 1.18504C78.4496 1.96932 80.1292 3.11978 81.5437 4.57059C82.9582 6.02139 84.0799 7.74406 84.8446 9.63999C85.6093 11.5359 86.0019 13.5679 86 15.6197V70.3803C86.0019 72.4321 85.6093 74.4641 84.8446 76.36C84.0799 78.2559 82.9582 79.9786 81.5437 81.4294C80.1292 82.8802 78.4496 84.0307 76.601 84.815C74.7525 85.5992 72.7713 86.0019 70.7708 86H15.2292C13.2287 86.0019 11.2475 85.5992 9.39899 84.815C7.55045 84.0307 5.87086 82.8802 4.45632 81.4294C3.04179 79.9786 1.92009 78.2559 1.15542 76.36C0.390749 74.4641 -0.00187868 72.4321 6.75844e-06 70.3803V15.6197C-0.00187868 13.5679 0.390749 11.5359 1.15542 9.63999C1.92009 7.74406 3.04179 6.02139 4.45632 4.57059C5.87086 3.11978 7.55045 1.96932 9.39899 1.18504C11.2475 0.400768 13.2287 -0.00192685 15.2292 6.93173e-06Z" fill="#000B1D"/>
<path d="M34.7585 69.2299C39.7061 69.2299 43.7168 65.2191 43.7168 60.2716V51.3132H34.7585C29.811 51.3132 25.8002 55.324 25.8002 60.2716C25.8002 65.2191 29.811 69.2299 34.7585 69.2299Z" fill="#0ACF83"/>
<path d="M25.8002 42.3551C25.8002 37.4075 29.811 33.3967 34.7585 33.3967H43.7168V51.3134H34.7585C29.811 51.3134 25.8002 47.3026 25.8002 42.3551Z" fill="#A259FF"/>
<path d="M25.8002 24.4383C25.8002 19.4908 29.811 15.48 34.7585 15.48H43.7168V33.3966H34.7585C29.811 33.3966 25.8002 29.3859 25.8002 24.4383Z" fill="#F24E1E"/>
<path d="M43.7168 15.48H52.6751C57.6227 15.48 61.6335 19.4908 61.6335 24.4383C61.6335 29.3859 57.6227 33.3966 52.6751 33.3966H43.7168V15.48Z" fill="#FF7262"/>
<path d="M61.6335 42.3551C61.6335 47.3026 57.6227 51.3134 52.6751 51.3134C47.7276 51.3134 43.7168 47.3026 43.7168 42.3551C43.7168 37.4075 47.7276 33.3967 52.6751 33.3967C57.6227 33.3967 61.6335 37.4075 61.6335 42.3551Z" fill="#1ABCFE"/>
</svg>
