<svg width="67" height="100" viewBox="0 0 67 100" fill="none" xmlns="http://www.w3.org/2000/svg">
<path d="M16.6667 100C25.8714 100 33.3334 92.5382 33.3334 83.3334V66.6667H16.6667C7.46192 66.6667 0 74.1287 0 83.3334C0 92.5382 7.46192 100 16.6667 100Z" fill="#0ACF83"/>
<path d="M0 49.9999C0 40.7952 7.46192 33.3333 16.6667 33.3333H33.3334V66.6666H16.6667C7.46192 66.6666 0 59.2047 0 49.9999Z" fill="#A259FF"/>
<path d="M0 16.6667C0 7.46192 7.46192 0 16.6667 0H33.3334V33.3333H16.6667C7.46192 33.3333 0 25.8714 0 16.6667Z" fill="#F24E1E"/>
<path d="M33.3334 0H50.0001C59.2048 0 66.6667 7.46192 66.6667 16.6667C66.6667 25.8714 59.2048 33.3333 50.0001 33.3333H33.3334V0Z" fill="#FF7262"/>
<path d="M66.6667 49.9999C66.6667 59.2047 59.2048 66.6666 50.0001 66.6666C40.7953 66.6666 33.3334 59.2047 33.3334 49.9999C33.3334 40.7952 40.7953 33.3333 50.0001 33.3333C59.2048 33.3333 66.6667 40.7952 66.6667 49.9999Z" fill="#1ABCFE"/>
</svg>
