<svg width="86" height="86" viewBox="0 0 86 86" fill="none" xmlns="http://www.w3.org/2000/svg">
<path d="M15.2292 6.93173e-06H70.7708C72.7713 -0.00192685 74.7525 0.400768 76.601 1.18504C78.4495 1.96932 80.1291 3.11978 81.5437 4.57059C82.9582 6.02139 84.0799 7.74406 84.8446 9.63999C85.6093 11.5359 86.0019 13.5679 86 15.6197V70.3803C86.0019 72.4321 85.6093 74.4641 84.8446 76.36C84.0799 78.2559 82.9582 79.9786 81.5437 81.4294C80.1291 82.8802 78.4495 84.0307 76.601 84.815C74.7525 85.5992 72.7713 86.0019 70.7708 86H15.2292C13.2287 86.0019 11.2475 85.5992 9.39899 84.815C7.55045 84.0307 5.87085 82.8802 4.45632 81.4294C3.04179 79.9786 1.92009 78.2559 1.15542 76.36C0.390748 74.4641 -0.00187868 72.4321 6.75844e-06 70.3803V15.6197C-0.00187868 13.5679 0.390748 11.5359 1.15542 9.63999C1.92009 7.74406 3.04179 6.02139 4.45632 4.57059C5.87085 3.11978 7.55045 1.96932 9.39899 1.18504C11.2475 0.400768 13.2287 -0.00192685 15.2292 6.93173e-06Z" fill="#F16529"/>
<path d="M29.6698 25.7829H43.0282V16.3401H19.35L19.5759 18.8734L21.8969 44.8954H43.0282V35.4526H30.5329L29.6698 25.7829ZM31.798 49.617H22.3188L23.6416 64.4437L42.9848 69.8131L43.0282 69.8013V59.9767L42.9868 59.9877L32.4704 57.148L31.798 49.617Z" fill="#EBEBEB"/>
<path d="M42.9957 44.8954H54.6235L53.5272 57.1421L42.9954 59.9847V69.8087L62.3538 64.4437L62.4958 62.8483L64.7151 37.9883L64.9454 35.4526H42.9957V44.8954ZM42.9957 25.7599V25.7829H65.8046L65.9939 23.6606L66.4244 18.8734L66.65 16.3401H42.9957V25.7602V25.7599Z" fill="white"/>
</svg>
