<svg width="89" height="100" viewBox="0 0 89 100" fill="none" xmlns="http://www.w3.org/2000/svg">
<path d="M88.1749 0L80.142 89.9897L44.0336 100L8.02461 90.0035L0 0H88.1749Z" fill="#E44D26"/>
<path d="M44.0875 92.3483L73.2649 84.2593L80.1292 7.35889H44.0875V92.3483Z" fill="#F16529"/>
<path d="M28.4717 29.4365H44.0874V18.3979H16.408L16.672 21.3594L19.3853 51.7787H44.0874V40.7402H29.4806L28.4717 29.4365ZM30.9595 57.2982H19.8785L21.4249 74.6304L44.0366 80.9072L44.0874 80.8934V69.4086L44.0391 69.4214L31.7455 66.1019L30.9595 57.2982Z" fill="#EBEBEB"/>
<path d="M44.0494 51.7787H57.6422L56.3606 66.095L44.0491 69.4179V80.902L66.6788 74.6304L66.8447 72.7654L69.4391 43.7044L69.7083 40.7402H44.0494V51.7787ZM44.0494 29.4096V29.4365H70.7127L70.934 26.9555L71.4372 21.3594L71.7009 18.3979H44.0494V29.4099V29.4096Z" fill="white"/>
</svg>
