<svg width="86" height="86" viewBox="0 0 86 86" fill="none" xmlns="http://www.w3.org/2000/svg">
<path d="M70.95 0H15.05C6.73811 0 0 6.73811 0 15.05V70.95C0 79.2619 6.73811 86 15.05 86H70.95C79.2619 86 86 79.2619 86 70.95V15.05C86 6.73811 79.2619 0 70.95 0Z" fill="#2E0501"/>
<path d="M43.7141 52.5112H30.7741L27.5391 62.3311C27.5019 62.6303 27.2974 62.78 26.9255 62.78H21.0691C20.6972 62.78 20.5671 62.5929 20.6786 62.2188L32.28 28.8874C32.5403 28.3263 32.7077 27.2788 32.782 25.7451C32.782 25.5206 32.9122 25.4084 33.1725 25.4084H41.2042C41.3901 25.4084 41.5389 25.5019 41.6504 25.689L54.5905 62.2749C54.702 62.6116 54.5904 62.78 54.2558 62.78H47.6742C47.4139 62.78 47.228 62.649 47.1165 62.3872L43.7141 52.5112ZM32.2243 47.0682H42.264C42.1152 46.5445 41.3344 44.169 39.9214 39.9418C38.5455 35.6772 37.6345 32.7593 37.1883 31.1881H37.1326C36.6863 33.0959 35.0503 38.3893 32.2243 47.0682Z" fill="#F2A032"/>
<path d="M58.0534 62.2749V35.9016C58.0534 35.6023 58.2021 35.4527 58.4996 35.4527H64.6907C64.9882 35.4527 65.1369 35.6023 65.1369 35.9016V62.3311C65.1369 62.6303 64.9882 62.78 64.6907 62.78H58.5553C58.2207 62.78 58.0534 62.6116 58.0534 62.2749ZM64.356 29.7852C63.6867 30.4586 62.7757 30.7953 61.623 30.7953C60.4703 30.7953 59.5593 30.4586 58.89 29.7852C58.2207 29.1119 57.886 28.1954 57.886 27.0357C57.886 25.9134 58.2393 24.9969 58.9458 24.2861C59.6523 23.5754 60.5633 23.22 61.6788 23.22C62.7943 23.22 63.6867 23.5754 64.356 24.2861C65.0254 24.9969 65.36 25.9134 65.36 27.0357C65.36 28.1954 65.0254 29.1119 64.356 29.7852Z" fill="#F2A032"/>
</svg>
