<svg width="86" height="86" viewBox="0 0 86 86" fill="none" xmlns="http://www.w3.org/2000/svg">
<path d="M70.95 0H15.05C6.73811 0 0 6.73811 0 15.05V70.95C0 79.2619 6.73811 86 15.05 86H70.95C79.2619 86 86 79.2619 86 70.95V15.05C86 6.73811 79.2619 0 70.95 0Z" fill="#430C1F"/>
<path d="M31.7604 26.205V62.2023C31.7604 62.5382 31.6101 62.7062 31.3095 62.7062H25.3909C25.0903 62.7062 24.9399 62.5382 24.9399 62.2023V26.205C24.9399 25.9064 25.0903 25.7572 25.3909 25.7572H31.3659C31.6289 25.7572 31.7604 25.9064 31.7604 26.205Z" fill="#EC4E68"/>
<path d="M50.1165 63.21C45.9077 63.21 42.5445 62.0344 40.0267 59.6831C37.5089 57.3318 36.2501 53.8608 36.2501 49.2702C36.2501 45.0901 37.6029 41.6564 40.3085 38.9692C43.0142 36.282 46.6217 34.9384 51.1312 34.9384C52.2585 34.9384 53.2356 35.0317 54.0623 35.2183V23.1259C54.0623 22.902 54.175 22.79 54.4005 22.79H60.6009C60.7888 22.79 60.8828 22.902 60.8828 23.1259V56.66C60.8828 58.0782 60.9392 59.3099 61.0519 60.3549C61.0895 60.5788 60.9955 60.7468 60.7701 60.8587C57.5007 62.4263 53.9495 63.21 50.1165 63.21ZM54.0623 57.6677V40.3688C53.3107 39.9583 52.2961 39.753 51.0184 39.753C48.7261 39.753 46.866 40.5554 45.438 42.1603C44.01 43.7651 43.296 46.0418 43.296 48.9903C43.296 52.1253 43.9912 54.4393 45.3816 55.9322C46.8096 57.4251 48.6134 58.1715 50.7929 58.1715C52.1458 58.1715 53.2356 58.0036 54.0623 57.6677Z" fill="#EC4E68"/>
</svg>
