<?xml version="1.0" encoding="UTF-8"?>
<svg id="Livello_1" data-name="Livello 1" xmlns="http://www.w3.org/2000/svg" viewBox="0 0 348 454">
  <defs>
    <style>
      .cls-1 {
        fill: #f9b24d;
      }

      .cls-1, .cls-2 {
        stroke-width: 0px;
      }

      .cls-2 {
        fill: #434343;
      }
    </style>
  </defs>
  <polygon class="cls-2" points="341.26 96.59 264.37 140.94 177.37 90.76 174 88.83 170.63 90.76 80.26 142.89 76.89 144.83 76.89 257.01 80.26 258.95 167.26 309.14 167.26 397.96 0 301.36 0 100.48 87 50.23 174 -.01 261 50.23 341.26 96.59"/>
  <polygon class="cls-1" points="261 351.61 250.89 357.44 261 363.27 341.19 409.57 264.34 454.01 180.74 405.74 180.74 309.14 267.74 258.95 277.86 253.12 267.74 247.29 177.37 195.08 167.26 189.25 167.26 293.57 90.37 249.23 90.37 152.61 174 104.38 261 154.56 348 204.8 348 301.36 261 351.61"/>
</svg>