<?xml version="1.0" encoding="UTF-8"?>
<svg id="Livello_1" data-name="Livello 1" xmlns="http://www.w3.org/2000/svg" viewBox="0 0 392 257">
  <defs>
    <style>
      .cls-1 {
        fill: #f7b04d;
      }

      .cls-1, .cls-2 {
        stroke-width: 0px;
      }

      .cls-2 {
        fill: #434343;
      }
    </style>
  </defs>
  <polygon class="cls-2" points="258.53 37.73 229.79 54.31 197.26 35.55 196 34.83 194.74 35.55 160.96 55.04 159.7 55.76 159.7 97.7 160.96 98.42 193.48 117.18 193.48 150.39 130.96 114.27 130.96 39.19 163.48 20.4 196 1.62 228.53 20.4 258.53 37.73"/>
  <polygon class="cls-1" points="228.53 133.06 224.75 135.24 228.53 137.42 258.5 154.72 229.77 171.34 198.52 153.3 198.52 117.18 231.04 98.42 234.83 96.24 231.04 94.06 197.26 74.55 193.48 72.37 193.48 111.36 164.74 94.79 164.74 58.67 196 40.64 228.53 59.4 261.05 78.18 261.05 114.27 228.53 133.06"/>
  <g>
    <g>
      <path class="cls-2" d="M37.2,245.38c-4.33,9.56-11.09,10.96-16.7,10.96-3.12,0-9.69-.45-14.4-5.99-3.38-3.95-5.23-10.33-5.23-17.34,0-9.56,3.44-23.96,19.25-23.96,12.11,0,15.42,7.33,17.4,11.66l-4.27,2.23c-.83-3.7-2.93-6.44-4.78-7.84-3-2.23-6.56-2.29-8.16-2.29-4.84,0-8.22,1.4-11.09,5.29-3.12,4.27-3.89,9.43-3.89,14.28,0,3.06.38,10.39,3.76,14.85,3.51,4.78,8.73,5.29,11.92,5.29,2.17,0,4.72-.25,7.07-1.91,1.59-1.08,4.08-3.7,5.16-7.65l3.95,2.42Z"/>
      <path class="cls-2" d="M68.55,255.2h-3.76v-16.51c0-.76-.06-4.52-.13-4.78-.32-3.51-2.1-6.31-7.01-6.31-3.38,0-7.27,1.53-8.48,6.69-.45,1.91-.45,3.7-.45,7.78v13.13h-3.76v-45h3.76v19.44c1.85-3.76,5.61-5.48,9.43-5.48,4.52,0,8.09,2.23,9.5,5.74.83,2.17.83,4.84.89,8.16v17.14Z"/>
      <path class="cls-2" d="M81.93,255.2h-3.7v-30.4h3.7v4.84c1.91-4.02,5.1-5.35,8.86-5.35.89,0,1.34.06,2.1.19v3.38c-1.15-.19-1.28-.19-2.29-.19s-4.02.06-6.25,2.42c-2.36,2.61-2.36,5.74-2.42,11.98v13.13Z"/>
      <path class="cls-2" d="M101.81,217.66h-3.7v-5.8h3.7v5.8ZM101.81,255.2h-3.7v-30.4h3.7v30.4Z"/>
      <path class="cls-2" d="M123.93,238.05c1.98.51,4.52,1.15,6.44,3.25,1.34,1.47,2.04,3.38,2.04,5.35,0,4.46-3.51,9.3-11.41,9.3-3.89,0-6.37-1.27-7.65-2.17-2.17-1.47-3.51-3.38-4.59-5.99l3.7-1.27c.7,2.74,3.31,6.05,8.54,6.05s7.71-2.8,7.71-5.99c0-3.95-4.02-4.91-6.5-5.42-1.15-.26-2.42-.51-3.63-.77-2.8-.64-7.9-1.91-7.9-7.84,0-3.12,1.78-8.48,10.9-8.48,3,0,5.42.7,7.07,1.72,2.74,1.66,3.51,4.21,3.76,5.16l-3.63.89c-.19-.83-.57-2.29-2.61-3.44-1.28-.76-3-1.08-4.78-1.08-2.29,0-7.01.57-7.01,5.1,0,3.31,3,4.14,6.37,4.91l3.19.7Z"/>
    </g>
    <g>
      <path class="cls-2" d="M158.21,210.2h14.34c5.99.06,10.01.06,13.96,3.25,2.8,2.29,4.97,5.86,4.97,11.09,0,8.6-6.31,11.6-8.86,12.36l10.01,18.29h-9.62l-8.92-16.7h-7.52v16.7h-8.35v-45ZM166.56,217.47v14.08h2.93c2.87,0,3.95-.06,5.54-.13,1.85-.06,7.9-.38,7.9-6.95,0-.96-.06-4.27-3.57-6.05-1.78-.89-3.95-.96-8.92-.96h-3.89Z"/>
      <path class="cls-2" d="M205.94,210.65v7.71h-7.58v-7.71h7.58ZM205.94,223.33v31.87h-7.58v-31.87h7.58Z"/>
      <path class="cls-2" d="M221.81,210.2v15.81c2.55-2.36,5.74-3.63,9.24-3.63,7.2,0,13.96,6.63,13.96,16.76s-6.88,17.02-14.47,17.02c-4.21,0-7.07-2.36-8.73-4.27v3.31h-7.58v-45h7.58ZM229.21,229.32c-3.44,0-7.52,2.61-7.52,9.43,0,1.98.26,3.31.51,4.08,1.53,6.05,6.69,6.05,7.33,6.05,5.61,0,7.46-5.67,7.58-9.88.19-6.31-3.76-9.69-7.9-9.69Z"/>
      <path class="cls-2" d="M250.42,232.7c.13-1.59.25-2.93,1.27-4.78,3.06-5.55,10.64-5.55,12.68-5.55,3.06,0,6.76.38,9.56,2.04,3.76,2.29,3.82,5.29,3.82,8.73v16.89c0,2.42,0,3.25,1.4,5.16h-9.05c-.06-.76-.19-2.04-.19-2.49-1.66,1.4-5.03,3.25-9.43,3.25-7.2,0-11.54-4.46-11.54-9.94,0-1.59.38-3.06,1.02-4.33,2.29-4.59,7.2-5.61,10.26-6.18,6.56-1.34,7.07-1.47,9.88-2.36,0-1.59-.13-4.84-5.42-4.84-3.19,0-4.91,1.02-5.67,2.04-.83,1.02-.77,1.91-.77,2.8l-7.84-.45ZM270.12,239.33c-1.53.77-3.25,1.34-6.69,1.91-2.74.38-6.37,1.02-6.37,4.4,0,2.49,2.1,3.76,5.16,3.76,3.89,0,6.63-1.78,7.46-3.7.45-.96.45-1.91.45-2.87v-3.51Z"/>
      <path class="cls-2" d="M314.79,223.33v31.87h-7.65v-3.25c-1.34,1.28-4.46,4.02-10.32,4.02-5.23,0-7.71-2.23-8.86-3.7-2.17-2.74-2.17-5.74-2.17-10.52v-18.42h7.71v18.29c0,1.27,0,2.36.26,3.19.83,2.8,3.12,4.02,5.93,4.02,3.19,0,5.16-1.72,6.18-3.38,1.15-2.1,1.21-4.14,1.27-8.6v-13.51h7.65Z"/>
      <path class="cls-2" d="M351.88,210.2v45h-7.58v-3.06c-2.36,2.87-5.54,4.02-8.86,4.02-7.58,0-14.15-5.67-14.15-16.19,0-9.5,5.35-17.59,14.47-17.59,3.12,0,6.12.89,8.54,3.57v-15.74h7.58ZM342.51,232.38c-1.15-1.72-3.06-2.93-5.61-2.93-5.16,0-7.65,4.65-7.65,9.69,0,.57.06,10.13,7.52,10.13,3.95,0,7.52-2.93,7.46-9.82-.06-2.04-.32-4.97-1.72-7.07Z"/>
      <path class="cls-2" d="M374.95,256.15c-9.94,0-16.57-7.27-16.57-17.02s6.75-16.76,16.25-16.76c8.86,0,16.44,6.18,16.51,16.76,0,9.94-6.56,17.02-16.19,17.02ZM374.56,229.26c-4.78,0-8.22,3.82-8.22,9.69,0,6.56,4.02,10.2,8.6,10.2,5.54,0,8.35-4.84,8.16-10.13-.13-5.29-3.19-9.75-8.54-9.75Z"/>
    </g>
  </g>
</svg>