<svg width="42" height="42" viewBox="0 0 42 42" fill="none" xmlns="http://www.w3.org/2000/svg">
<circle cx="21" cy="21" r="21" fill="#F9B24D"/>
<path d="M18.5025 13.2572C18.1987 12.4979 17.4633 12 16.6455 12H13.8947C12.8483 12 12 12.8481 12 13.8945C12 22.7892 19.2108 30 28.1055 30C29.1519 30 30 29.1516 30 28.1052L30.0005 25.354C30.0005 24.5361 29.5027 23.8009 28.7434 23.4971L26.1069 22.4429C25.4249 22.1701 24.6483 22.2929 24.0839 22.7632L23.4035 23.3307C22.6089 23.9929 21.4396 23.9402 20.7082 23.2088L18.7922 21.2911C18.0608 20.5596 18.0067 19.3913 18.6689 18.5967L19.2363 17.9163C19.7066 17.352 19.8305 16.5752 19.5577 15.8931L18.5025 13.2572Z" stroke="white" stroke-width="2" stroke-linecap="round" stroke-linejoin="round"/>
</svg>
