<svg width="86" height="86" viewBox="0 0 86 86" fill="none" xmlns="http://www.w3.org/2000/svg">
<path d="M70.95 0H15.05C6.73811 0 0 6.73811 0 15.05V70.95C0 79.2619 6.73811 86 15.05 86H70.95C79.2619 86 86 79.2619 86 70.95V15.05C86 6.73811 79.2619 0 70.95 0Z" fill="#001E36"/>
<path d="M19.35 60.9712V24.5823C19.35 24.3218 19.4804 24.1916 19.7413 24.1916C22.5734 24.1172 26.1694 24.08 30.5294 24.08C35.6719 24.08 39.4357 25.2334 41.8206 27.5403C44.2428 29.8471 45.4539 32.6935 45.4539 36.0794C45.4539 40.2838 43.9633 43.4092 40.9821 45.4556C38.001 47.5021 34.2559 48.5253 29.7468 48.5253H26.4489V60.9154C26.4489 61.213 26.2998 61.3618 26.0017 61.3618H19.7972C19.499 61.3618 19.35 61.2316 19.35 60.9712ZM26.4489 29.4378V43.1674C26.9706 43.2418 28.1817 43.279 30.0822 43.279C32.579 43.279 34.5912 42.7395 36.1191 41.6605C37.6842 40.5443 38.4668 38.7397 38.4668 36.2468C38.4668 34.0516 37.7774 32.3586 36.3986 31.168C35.0571 29.9773 33.1007 29.382 30.5294 29.382C29.8959 29.382 29.2624 29.4006 28.6289 29.4378C28.0327 29.4378 27.5296 29.4378 27.1197 29.4378C26.747 29.4378 26.5234 29.4378 26.4489 29.4378Z" fill="#31A8FE"/>
<path d="M64.9559 40.6001C62.8691 39.2978 60.6891 38.6467 58.4159 38.6467C57.1117 38.6467 56.1428 38.8885 55.5093 39.3722C54.913 39.8559 54.6149 40.4326 54.6149 41.1024C54.6149 41.7721 54.8758 42.3674 55.3975 42.8883C55.9192 43.372 57.0185 43.9487 58.6954 44.6185C61.7884 45.8091 63.9497 47.0742 65.1795 48.4136C66.4465 49.7159 67.08 51.4088 67.08 53.4925C67.08 56.0226 66.1111 58.069 64.1733 59.6317C62.2728 61.1572 59.6829 61.92 56.4036 61.92C53.1243 61.92 50.4413 61.3246 48.3545 60.134C48.1309 60.0596 48.0191 59.8735 48.0191 59.5759V54.3854C48.0191 54.2366 48.0563 54.1436 48.1309 54.1064C48.2427 54.032 48.3358 54.032 48.4103 54.1064C50.8326 55.8923 53.4225 56.7853 56.18 56.7853C57.4843 56.7853 58.4718 56.5621 59.1426 56.1156C59.8506 55.6319 60.2046 55.018 60.2046 54.2738C60.2046 53.4925 59.9251 52.8413 59.3662 52.3204C58.8072 51.7623 57.7079 51.167 56.0682 50.5345C53.0871 49.381 51.0002 48.1532 49.8078 46.8509C48.6526 45.5115 48.075 43.8371 48.075 41.8279C48.075 39.5211 48.9507 37.5863 50.7021 36.0236C52.4536 34.4608 54.9503 33.6795 58.1923 33.6795C61.2108 33.6795 63.5398 34.0888 65.1795 34.9073C65.3658 35.019 65.459 35.2608 65.459 35.6329V40.2652C65.459 40.7117 65.2913 40.8233 64.9559 40.6001Z" fill="#31A8FE"/>
</svg>
