<svg width="42" height="42" viewBox="0 0 42 42" fill="none" xmlns="http://www.w3.org/2000/svg">
<circle cx="21" cy="21" r="21" fill="#F9B24D"/>
<path d="M12 21H17M12 21C12 25.9706 16.0294 30 21 30M12 21C12 16.0294 16.0294 12 21 12M17 21H25M17 21C17 25.9706 18.7909 30 21 30M17 21C17 16.0294 18.7909 12 21 12M25 21H30M25 21C25 16.0294 23.2091 12 21 12M25 21C25 25.9706 23.2091 30 21 30M30 21C30 16.0294 25.9706 12 21 12M30 21C30 25.9706 25.9706 30 21 30" stroke="white" stroke-width="2" stroke-linecap="round" stroke-linejoin="round"/>
</svg>
