<svg width="86" height="86" viewBox="0 0 86 86" fill="none" xmlns="http://www.w3.org/2000/svg">
<path d="M15.2292 6.93173e-06H70.7708C72.7713 -0.00192685 74.7525 0.400768 76.601 1.18504C78.4495 1.96932 80.1291 3.11978 81.5437 4.57059C82.9582 6.02139 84.0799 7.74406 84.8446 9.63999C85.6093 11.5359 86.0019 13.5679 86 15.6197V70.3803C86.0019 72.4321 85.6093 74.4641 84.8446 76.36C84.0799 78.2559 82.9582 79.9786 81.5437 81.4294C80.1291 82.8802 78.4495 84.0307 76.601 84.815C74.7525 85.5992 72.7713 86.0019 70.7708 86H15.2292C13.2287 86.0019 11.2475 85.5992 9.39899 84.815C7.55045 84.0307 5.87085 82.8802 4.45632 81.4294C3.04179 79.9786 1.92009 78.2559 1.15542 76.36C0.390748 74.4641 -0.00187868 72.4321 6.75844e-06 70.3803V15.6197C-0.00187868 13.5679 0.390748 11.5359 1.15542 9.63999C1.92009 7.74406 3.04179 6.02139 4.45632 4.57059C5.87085 3.11978 7.55045 1.96932 9.39899 1.18504C11.2475 0.400768 13.2287 -0.00192685 15.2292 6.93173e-06Z" fill="#000B1D"/>
<path d="M70.7131 19.6159L58.423 13.6985C57.0005 13.0136 55.3004 13.3025 54.184 14.4189L13.9508 51.1021C12.8687 52.0887 12.8699 53.7925 13.9535 54.7776L17.2399 57.7652C18.1258 58.5705 19.46 58.6298 20.4138 57.9062L68.8638 21.1511C70.4892 19.918 72.8238 21.0773 72.8238 23.1175V22.9749C72.8238 21.5427 72.0034 20.2372 70.7131 19.6159Z" fill="#0065A9"/>
<g filter="url(#filter0_d_33_510)">
<path d="M70.7131 66.384L58.423 72.3014C57.0005 72.9865 55.3004 72.6974 54.184 71.581L13.9508 34.8979C12.8687 33.9112 12.8699 32.2074 13.9535 31.2224L17.2399 28.2347C18.1258 27.4294 19.46 27.3701 20.4138 28.0937L68.8638 64.8488C70.4892 66.0819 72.8238 64.9226 72.8238 62.8824V63.0251C72.8238 64.4572 72.0034 65.7627 70.7131 66.384Z" fill="#007ACC"/>
</g>
<g filter="url(#filter1_d_33_510)">
<path d="M58.4236 72.3027C57.0006 72.9873 55.3005 72.6977 54.184 71.5812C55.5597 72.9569 57.9119 71.9825 57.9119 70.037V15.9631C57.9119 14.0176 55.5597 13.0433 54.184 14.419C55.3005 13.3024 57.0006 13.0131 58.4236 13.6974L70.7115 19.6068C72.0027 20.2277 72.8238 21.5337 72.8238 22.9664V63.034C72.8238 64.4667 72.0027 65.7727 70.7115 66.3936L58.4236 72.3027Z" fill="#1F9CF0"/>
</g>
<g style="mix-blend-mode:overlay" opacity="0.25">
<path style="mix-blend-mode:overlay" fill-rule="evenodd" clip-rule="evenodd" d="M55.4372 72.4165C56.3767 72.7824 57.4479 72.759 58.3961 72.3028L70.6765 66.3937C71.9669 65.7727 72.7875 64.4667 72.7875 63.0339V22.9664C72.7875 21.5336 71.967 20.2277 70.6766 19.6067L58.3961 13.6974C57.1517 13.0986 55.6953 13.2453 54.6031 14.0393C54.4471 14.1528 54.2985 14.2794 54.159 14.419L30.6496 35.8671L20.4094 28.0939C19.4561 27.3703 18.1228 27.4296 17.2374 28.2349L13.953 31.2225C12.8701 32.2077 12.8688 33.9114 13.9503 34.8981L22.831 43.0001L13.9503 51.1021C12.8688 52.0888 12.8701 53.7925 13.953 54.7776L17.2374 57.7652C18.1228 58.5706 19.4561 58.6299 20.4094 57.9063L30.6496 50.1331L54.159 71.5812C54.5309 71.9533 54.9676 72.2336 55.4372 72.4165ZM57.8847 29.4594L40.0465 43.0001L57.8847 56.5408V29.4594Z" fill="url(#paint0_linear_33_510)"/>
</g>
<defs>
<filter id="filter0_d_33_510" x="9.55668" y="24.005" width="66.8505" height="52.2477" filterUnits="userSpaceOnUse" color-interpolation-filters="sRGB">
<feFlood flood-opacity="0" result="BackgroundImageFix"/>
<feColorMatrix in="SourceAlpha" type="matrix" values="0 0 0 0 0 0 0 0 0 0 0 0 0 0 0 0 0 0 127 0" result="hardAlpha"/>
<feOffset/>
<feGaussianBlur stdDeviation="1.79167"/>
<feColorMatrix type="matrix" values="0 0 0 0 0 0 0 0 0 0 0 0 0 0 0 0 0 0 0.25 0"/>
<feBlend mode="overlay" in2="BackgroundImageFix" result="effect1_dropShadow_33_510"/>
<feBlend mode="normal" in="SourceGraphic" in2="effect1_dropShadow_33_510" result="shape"/>
</filter>
<filter id="filter1_d_33_510" x="50.6006" y="9.74674" width="25.8066" height="66.5068" filterUnits="userSpaceOnUse" color-interpolation-filters="sRGB">
<feFlood flood-opacity="0" result="BackgroundImageFix"/>
<feColorMatrix in="SourceAlpha" type="matrix" values="0 0 0 0 0 0 0 0 0 0 0 0 0 0 0 0 0 0 127 0" result="hardAlpha"/>
<feOffset/>
<feGaussianBlur stdDeviation="1.79167"/>
<feColorMatrix type="matrix" values="0 0 0 0 0 0 0 0 0 0 0 0 0 0 0 0 0 0 0.25 0"/>
<feBlend mode="overlay" in2="BackgroundImageFix" result="effect1_dropShadow_33_510"/>
<feBlend mode="normal" in="SourceGraphic" in2="effect1_dropShadow_33_510" result="shape"/>
</filter>
<linearGradient id="paint0_linear_33_510" x1="42.9638" y1="13.3301" x2="42.9638" y2="72.6701" gradientUnits="userSpaceOnUse">
<stop stop-color="white"/>
<stop offset="1" stop-color="white" stop-opacity="0"/>
</linearGradient>
</defs>
</svg>
