<svg width="86" height="86" viewBox="0 0 86 86" fill="none" xmlns="http://www.w3.org/2000/svg">
<path d="M15.2292 6.93173e-06H70.7708C72.7713 -0.00192685 74.7525 0.400768 76.601 1.18504C78.4496 1.96932 80.1292 3.11978 81.5437 4.57059C82.9582 6.02139 84.0799 7.74406 84.8446 9.63999C85.6093 11.5359 86.0019 13.5679 86 15.6197V70.3803C86.0019 72.4321 85.6093 74.4641 84.8446 76.36C84.0799 78.2559 82.9582 79.9786 81.5437 81.4294C80.1292 82.8802 78.4496 84.0307 76.601 84.815C74.7525 85.5992 72.7713 86.0019 70.7708 86H15.2292C13.2287 86.0019 11.2475 85.5992 9.39899 84.815C7.55045 84.0307 5.87086 82.8802 4.45632 81.4294C3.04179 79.9786 1.92009 78.2559 1.15542 76.36C0.390749 74.4641 -0.00187868 72.4321 6.75844e-06 70.3803V15.6197C-0.00187868 13.5679 0.390749 11.5359 1.15542 9.63999C1.92009 7.74406 3.04179 6.02139 4.45632 4.57059C5.87086 3.11978 7.55045 1.96932 9.39899 1.18504C11.2475 0.400768 13.2287 -0.00192685 15.2292 6.93173e-06Z" fill="#470137"/>
<path d="M44.7336 26.0179L33.9836 43.7554L45.4502 62.5679C45.5257 62.6978 45.5512 62.8507 45.5219 62.9979C45.4861 63.1413 45.3427 63.0338 45.1277 63.0696H36.9219C36.3486 63.0696 35.9544 63.0338 35.7036 62.6754C34.9511 61.1704 34.1627 59.7013 33.4102 58.1963C32.6577 56.6913 31.8336 55.2221 30.9736 53.6813C30.1136 52.1404 29.2536 50.5996 28.3936 49.0229H28.3219C27.5694 50.5638 26.7452 52.1046 25.9211 53.6454C25.0969 55.1863 24.2727 56.7271 23.4844 58.2321C22.6961 59.7371 21.8361 61.2779 21.0119 62.7471C20.8686 63.1054 20.5819 63.1413 20.1877 63.1413H12.3044C12.1611 63.1413 12.0536 63.2129 12.0536 63.0338C12.0376 62.9667 12.0357 62.897 12.048 62.8292C12.0603 62.7613 12.0866 62.6968 12.1252 62.6396L23.2694 44.3646L12.4119 25.9821C12.3044 25.8388 12.2686 25.6954 12.3402 25.6238C12.3839 25.5727 12.4393 25.533 12.5017 25.508C12.5642 25.483 12.6317 25.4736 12.6986 25.4804H20.8327C21.0022 25.4841 21.1706 25.5082 21.3344 25.5521C21.4779 25.6294 21.6008 25.74 21.6927 25.8746C22.3736 27.4154 23.1619 28.9563 23.9861 30.4971C24.8102 32.0379 25.6702 33.5429 26.5661 35.0479C27.4619 36.5529 28.2144 38.0579 28.9669 39.5988H29.0386C29.7911 38.0221 30.5794 36.4813 31.3677 34.9763C32.1561 33.4713 32.9802 31.9663 33.8044 30.4613C34.6286 28.9563 35.4169 27.4154 36.2052 25.9463C36.2324 25.8052 36.3085 25.6783 36.4202 25.5879C36.5621 25.5097 36.7272 25.4843 36.8861 25.5163H44.4469C44.4893 25.5068 44.5331 25.5057 44.5758 25.5132C44.6186 25.5207 44.6595 25.5365 44.6961 25.5598C44.7327 25.5831 44.7644 25.6134 44.7892 25.649C44.8141 25.6846 44.8317 25.7247 44.8411 25.7671C44.8769 25.8029 44.8052 25.9463 44.7336 26.0179Z" fill="#FF61F6"/>
<path d="M61.2886 63.8221C58.6324 63.8657 56.0001 63.3147 53.5844 62.2096C51.3368 61.1586 49.4532 59.462 48.1736 57.3362C46.8477 55.1504 46.2027 52.4271 46.2027 49.1662C46.1664 46.5144 46.8474 43.9021 48.1736 41.6054C49.5334 39.2712 51.503 37.3512 53.8711 36.0512C56.3794 34.6537 59.3894 33.9729 62.9369 33.9729C63.1882 33.9701 63.4395 33.982 63.6894 34.0087C64.0119 34.0446 64.3702 34.0446 64.8002 34.0804V22.7571C64.8002 22.5062 64.9077 22.3629 65.1586 22.3629H72.4327C72.5131 22.352 72.5945 22.3718 72.6609 22.4183C72.7273 22.4648 72.7738 22.5345 72.7911 22.6137V56.7987C72.7911 57.4437 72.8269 58.1604 72.8627 58.9487C72.8986 59.7371 72.9702 60.4179 73.0061 61.0271C73.0137 61.1481 72.9833 61.2685 72.919 61.3713C72.8547 61.4741 72.7599 61.5542 72.6477 61.6004C70.7708 62.3892 68.8118 62.9661 66.8069 63.3204C64.9857 63.6488 63.1392 63.8167 61.2886 63.8221ZM64.8002 56.6554V40.8887C64.4812 40.8117 64.1582 40.7519 63.8327 40.7096C63.4386 40.6737 63.0444 40.6379 62.6502 40.6379C61.2456 40.6221 59.8575 40.9415 58.6011 41.5696C57.3766 42.1797 56.3282 43.0924 55.5552 44.2212C54.7669 45.3679 54.3727 46.9087 54.3727 48.7721C54.3415 50.0297 54.5482 51.282 54.9819 52.4629C55.3285 53.4179 55.8787 54.286 56.5944 55.0071C57.2852 55.6663 58.1192 56.1569 59.0311 56.4404C59.9909 56.7548 60.9952 56.9121 62.0052 56.9062C62.5427 56.9062 63.0444 56.8704 63.5102 56.8346C63.948 56.8658 64.3875 56.8048 64.8002 56.6554Z" fill="#FF61F6"/>
</svg>
